<?xml version="1.0" standalone="no"?>
<!DOCTYPE svg PUBLIC "-//W3C//DTD SVG 20010904//EN"
 "http://www.w3.org/TR/2001/REC-SVG-20010904/DTD/svg10.dtd">
<svg version="1.0" xmlns="http://www.w3.org/2000/svg"
 viewBox="0 0 2600.000000 2600.000000"
 preserveAspectRatio="xMidYMid meet">
<metadata>
Created by potrace 1.13, written by Peter Selinger 2001-2015
</metadata>
<g transform="translate(0.000000,2600.000000) scale(0.100000,-0.100000)"
fill="#000000" stroke="none">
<path d="M11740 17215 c-1669 -965 -3039 -1756 -3044 -1758 -5 -2 215 -393
490 -869 l499 -866 160 -6 c88 -4 240 -11 339 -17 98 -5 181 -7 184 -5 2 3
-194 349 -437 770 -242 420 -441 768 -441 773 1 5 4725 2739 5074 2934 7 5
689 -1167 1896 -3258 1037 -1796 1891 -3275 1897 -3288 12 -23 -23 -44 -2107
-1247 l-2120 -1223 0 -337 0 -337 203 117 c2921 1685 4827 2789 4827 2797 -1
16 -4365 7569 -4376 7571 -5 1 -1375 -787 -3044 -1751z"/>
<path d="M15941 17798 c0 -7 73 -139 163 -293 l162 -280 1947 -3 1947 -2 0
-3795 0 -3795 -1614 0 -1615 0 -488 -281 c-268 -155 -492 -285 -498 -290 -5
-5 1026 -9 2393 -9 l2402 0 0 4380 0 4380 -2400 0 c-1914 0 -2400 -3 -2399
-12z"/>
<path d="M10760 15272 c-58 -35 -65 -41 -63 -68 2 -16 32 -253 68 -526 75
-566 75 -551 0 -626 -39 -39 -43 -46 -33 -68 6 -13 15 -24 20 -24 12 0 398
223 398 230 0 3 -8 15 -18 27 l-17 23 -53 -20 c-62 -24 -95 -25 -115 -5 -16
15 -41 112 -52 200 l-7 50 162 93 c90 52 168 91 176 88 30 -11 214 -161 214
-174 0 -14 -28 -44 -78 -83 -31 -24 -32 -27 -21 -52 7 -15 15 -27 20 -27 4 0
124 68 268 151 l261 151 -17 28 c-16 28 -17 28 -51 14 -59 -24 -114 -18 -168
19 -27 18 -195 147 -374 288 -426 334 -445 349 -451 349 -2 0 -33 -18 -69 -38z
m228 -435 c83 -66 152 -123 152 -126 0 -7 -236 -144 -255 -149 -8 -2 -15 16
-19 50 -3 29 -17 121 -29 205 -15 95 -20 150 -13 146 6 -4 80 -60 164 -126z"/>
<path d="M13555 14048 c-11 -30 -115 -552 -129 -649 -34 -231 -12 -349 87
-456 61 -67 116 -95 195 -100 84 -6 160 20 224 77 40 34 54 57 85 139 8 22 12
17 41 -55 45 -113 55 -159 55 -246 1 -43 2 -78 4 -78 10 0 353 203 353 209 0
5 -17 16 -38 25 -59 27 -136 93 -197 171 -30 38 -55 73 -55 76 0 4 17 3 37 -3
115 -32 262 41 320 160 23 47 28 70 28 128 -1 62 -6 82 -39 148 -71 144 -175
202 -646 361 -172 58 -315 105 -317 105 -2 0 -6 -6 -8 -12z"/>
<path d="M8690 13129 c-1229 -44 -2296 -221 -2951 -490 -311 -127 -544 -290
-655 -456 -25 -38 -41 -53 -62 -55 l-27 -3 -3 -3150 c-2 -2170 1 -3172 8
-3220 52 -346 493 -636 1290 -849 1120 -300 2950 -399 4500 -245 1103 110
1937 327 2385 621 102 67 240 200 285 274 19 32 45 87 57 123 l22 66 1 3193 0
3192 -28 0 c-23 0 -33 8 -52 43 -34 60 -182 204 -269 262 -533 352 -1553 585
-2946 675 -448 28 -1080 36 -1555 19z m460 -554 l0 -105 -77 0 c-43 0 -181 -5
-308 -11 l-230 -11 -309 86 c-170 47 -311 88 -314 91 -3 3 6 5 19 5 13 0 121
7 239 15 293 21 536 32 778 33 l202 2 0 -105z m985 85 c318 -20 595 -44 588
-50 -4 -4 -142 -45 -306 -90 l-299 -83 -176 12 c-97 6 -264 14 -369 18 l-193
6 0 105 0 105 303 -7 c166 -3 370 -10 452 -16z m-2526 -191 c163 -45 300 -85
304 -89 5 -4 -13 -11 -40 -14 -78 -12 -287 -63 -371 -92 -86 -29 -202 -85
-240 -115 -24 -18 -46 -19 -776 -18 l-751 1 73 34 c183 85 526 191 858 264
201 44 560 108 613 109 19 1 168 -36 330 -80z m3896 42 c369 -64 669 -138 955
-234 l185 -62 -725 -3 -724 -2 -71 29 c-83 34 -208 72 -320 97 -44 10 -83 20
-87 23 -5 4 522 159 612 180 3 0 82 -12 175 -28z m-1719 -281 c453 -26 805
-73 1083 -146 135 -35 281 -94 281 -113 0 -27 -179 -94 -361 -135 -385 -86
-780 -124 -1374 -133 -740 -10 -1329 42 -1765 157 -129 34 -264 93 -258 112
13 39 255 118 498 162 246 45 601 83 925 99 158 8 813 6 971 -3z m3285 -282
c28 -46 18 -83 -37 -139 -58 -59 -175 -129 -328 -195 -127 -54 -385 -144 -415
-144 -10 0 -257 59 -550 130 -293 72 -536 130 -539 130 -4 0 14 14 40 30 91
57 148 132 148 195 l0 25 830 0 830 0 21 -32z m-5891 -80 c26 -43 115 -115
169 -137 17 -8 31 -16 31 -20 0 -4 -238 -65 -530 -136 l-529 -129 -97 27
c-248 71 -550 201 -672 291 -63 46 -102 96 -102 129 0 16 47 17 853 17 l852
-1 25 -41z m4090 -387 c250 -62 473 -117 495 -123 l40 -11 -35 -8 c-84 -19
-379 -71 -535 -93 -489 -71 -999 -111 -1552 -123 l-303 -6 0 175 0 175 198 7
c238 8 446 22 647 42 161 16 461 60 510 74 17 5 41 7 55 6 14 -2 230 -54 480
-115z m-3240 70 c255 -38 579 -65 928 -77 l192 -7 0 -175 0 -175 -302 6 c-525
12 -1053 52 -1508 117 -210 30 -510 83 -510 89 0 14 985 250 1025 246 22 -2
101 -12 175 -24z m-2350 -366 c133 -59 443 -163 623 -209 1496 -385 3899 -422
5562 -85 460 93 922 243 1163 376 l63 35 -3 -396 -3 -395 -45 -46 c-275 -282
-1336 -555 -2525 -650 -401 -32 -527 -37 -1076 -42 -826 -8 -1334 18 -1989
102 -866 112 -1602 321 -1901 541 -104 77 -99 50 -99 496 l0 388 63 -35 c34
-19 109 -55 167 -80z m15 -1356 c1388 -598 4651 -697 6555 -198 286 75 520
159 723 260 l117 59 0 -511 c0 -499 -1 -512 -21 -545 -31 -51 -130 -120 -274
-190 -898 -440 -2927 -646 -4810 -489 -1165 98 -2206 367 -2482 642 l-53 52 0
520 0 521 63 -35 c34 -19 116 -57 182 -86z m7374 -2536 c-82 -132 -468 -305
-965 -433 -1037 -268 -2582 -365 -4029 -255 -666 51 -1308 157 -1792 296 -242
70 -373 118 -550 205 -126 62 -164 86 -218 137 l-65 62 0 518 c0 284 2 517 4
517 2 0 64 -29 137 -65 735 -354 2105 -565 3679 -565 1579 0 2978 217 3690
573 l125 62 3 -509 c2 -504 2 -509 -19 -543z m-7479 -620 c610 -296 1668 -493
2985 -553 286 -13 1090 -13 1382 0 1332 60 2408 261 3013 565 60 30 112 55
115 55 3 0 5 -210 5 -468 l0 -467 -25 -37 c-95 -139 -533 -325 -1068 -453
-846 -201 -1998 -300 -3134 -267 -225 7 -507 19 -628 27 -859 59 -1590 184
-2137 366 -301 99 -497 197 -595 295 l-53 53 0 476 c0 262 3 475 8 473 4 -2
63 -31 132 -65z"/>
<path d="M16543 12564 c-47 -27 -63 -41 -63 -57 0 -12 29 -242 65 -511 36
-269 65 -505 65 -523 0 -47 -22 -92 -64 -132 -40 -38 -43 -48 -23 -75 13 -17
26 -11 208 93 107 62 195 114 197 115 4 5 -20 56 -27 56 -3 0 -30 -9 -59 -20
-70 -27 -98 -26 -117 4 -14 21 -60 235 -52 242 6 6 315 183 324 186 18 5 223
-162 223 -182 0 -11 -23 -37 -55 -62 -30 -23 -55 -45 -55 -48 0 -3 8 -15 18
-28 l18 -23 254 147 c140 80 259 150 263 154 5 4 1 19 -8 33 -16 25 -17 25
-57 11 -22 -8 -54 -14 -70 -14 -55 0 -42 -9 -650 468 -142 111 -261 202 -265
202 -5 -1 -36 -17 -70 -36z m227 -435 c80 -63 147 -118 149 -123 4 -11 -249
-160 -257 -151 -5 4 -61 365 -62 394 0 9 4 10 13 4 6 -6 77 -61 157 -124z"/>
</g>
</svg>
